<svg width="200" height="200" viewBox="0 0 200 200" fill="none" xmlns="http://www.w3.org/2000/svg">
<g clip-path="url(#clip0_17_2)">
<rect width="200" height="200" rx="20" fill="#212529"/>
<path d="M136.657 97.6138C134.411 92.2389 130.622 87.6507 125.769 84.4293C120.916 81.2079 115.216 79.498 109.391 79.5158C103.566 79.5336 97.8766 81.2783 93.043 84.5293C88.2094 87.7803 84.4484 92.3916 82.2354 97.7801C80.0225 103.169 79.4571 109.092 80.6107 114.802C81.7643 120.512 84.5851 125.751 88.7164 129.858C92.8477 133.965 98.104 136.754 103.821 137.874C109.537 138.993 115.457 138.392 120.832 136.147C124.402 134.656 127.643 132.477 130.37 129.734C133.097 126.99 135.257 123.736 136.726 120.158C138.196 116.58 138.946 112.747 138.934 108.879C138.922 105.011 138.149 101.183 136.657 97.6138ZM126.527 122.466L122.013 119.211L119.747 121.494L122.985 125.982C119.181 129.026 114.46 130.695 109.588 130.718C104.716 130.742 99.9785 129.119 96.1447 126.112L99.4433 121.538L97.1864 119.272L92.5769 122.597C90.036 119.469 88.4319 115.686 87.9501 111.685L93.662 110.756V107.57L87.8981 106.633C88.3395 102.616 89.8905 98.8021 92.3773 95.6172L97.1777 99.0895L99.4173 96.8412L95.945 92.0234C99.1008 89.481 102.916 87.891 106.943 87.44L107.89 93.2821H111.067L112.022 87.44C116.049 87.8962 119.869 89.4653 123.055 91.9713L119.582 96.711L121.857 98.9506L126.527 95.5738C127.741 97.1059 128.74 98.797 129.496 100.6C130.282 102.497 130.796 104.496 131.024 106.537L125.416 107.406V110.617L130.98 111.485C130.543 115.488 129.001 119.29 126.527 122.466Z" fill="white"/>
<path d="M90.3113 48.2556C92.1731 48.2539 93.9936 48.8045 95.5423 49.8378C97.0911 50.8711 98.2985 52.3406 99.0118 54.0604C99.7251 55.7802 99.9122 57.6729 99.5494 59.499C99.1866 61.3252 98.2902 63.0026 96.9737 64.3191C95.6572 65.6357 93.9797 66.532 92.1536 66.8948C90.3274 67.2576 88.4347 67.0706 86.7149 66.3573C84.9952 65.644 83.5256 64.4366 82.4923 62.8878C81.459 61.339 80.9084 59.5185 80.9101 57.6567C80.9147 55.1648 81.9066 52.7762 83.6687 51.0142C85.4308 49.2521 87.8193 48.2602 90.3113 48.2556ZM90.3113 43.1166C87.4344 43.1115 84.6207 43.9599 82.2261 45.5544C79.8316 47.149 77.9639 49.418 76.8594 52.0744C75.7549 54.7308 75.4633 57.6551 76.0213 60.4774C76.5794 63.2996 77.9622 65.8928 79.9946 67.9289C82.027 69.9649 84.6178 71.3523 87.439 71.9155C90.2602 72.4786 93.185 72.1922 95.8434 71.0925C98.5018 69.9927 100.774 68.1291 102.373 65.7375C103.972 63.3458 104.825 60.5336 104.825 57.6567C104.826 55.747 104.451 53.8557 103.721 52.0911C102.991 50.3265 101.92 48.7232 100.569 47.3728C99.2188 46.0224 97.6154 44.9514 95.8508 44.2211C94.0862 43.4908 92.195 43.1155 90.2852 43.1166H90.3113Z" fill="white"/>
<path d="M109.964 168.153C111.135 168.154 112.279 168.503 113.251 169.155C114.223 169.806 114.981 170.731 115.428 171.813C115.874 172.895 115.99 174.085 115.761 175.233C115.532 176.381 114.967 177.435 114.139 178.262C113.31 179.089 112.256 179.652 111.107 179.88C109.959 180.108 108.769 179.99 107.688 179.542C106.607 179.093 105.683 178.334 105.033 177.361C104.382 176.388 104.035 175.243 104.035 174.073C104.038 172.502 104.663 170.996 105.775 169.886C106.887 168.776 108.393 168.153 109.964 168.153ZM109.964 163.014C107.777 163.012 105.638 163.659 103.818 164.873C101.998 166.088 100.579 167.814 99.7408 169.835C98.9024 171.855 98.6822 174.079 99.1079 176.225C99.5337 178.371 100.586 180.342 102.133 181.89C103.679 183.437 105.649 184.492 107.795 184.919C109.94 185.346 112.164 185.128 114.186 184.291C116.207 183.454 117.935 182.037 119.15 180.218C120.366 178.399 121.015 176.261 121.015 174.073C121.015 171.141 119.851 168.33 117.779 166.256C115.707 164.182 112.896 163.016 109.964 163.014Z" fill="white"/>
<path d="M151.51 148.682C153.279 148.682 155.008 149.207 156.478 150.189C157.949 151.172 159.095 152.569 159.771 154.203C160.448 155.838 160.624 157.636 160.279 159.371C159.933 161.105 159.08 162.698 157.829 163.948C156.578 165.199 154.984 166.049 153.249 166.393C151.514 166.737 149.716 166.559 148.082 165.881C146.449 165.203 145.053 164.056 144.071 162.584C143.09 161.113 142.567 159.383 142.569 157.614C142.573 155.245 143.517 152.975 145.193 151.3C146.869 149.626 149.141 148.684 151.51 148.682ZM151.51 143.543C148.728 143.545 146.008 144.371 143.696 145.918C141.383 147.465 139.581 149.663 138.517 152.234C137.453 154.804 137.175 157.633 137.718 160.362C138.261 163.09 139.601 165.597 141.569 167.564C143.536 169.532 146.043 170.872 148.771 171.415C151.5 171.958 154.329 171.68 156.899 170.616C159.47 169.552 161.668 167.75 163.215 165.437C164.762 163.125 165.588 160.405 165.59 157.623C165.59 153.891 164.107 150.312 161.469 147.673C158.83 145.034 155.251 143.552 151.519 143.552L151.51 143.543Z" fill="white"/>
<path d="M141.076 20.1303C142.367 20.1303 143.629 20.5131 144.703 21.2304C145.776 21.9477 146.613 22.9672 147.107 24.16C147.601 25.3528 147.73 26.6654 147.478 27.9316C147.227 29.1979 146.605 30.3611 145.692 31.274C144.779 32.1869 143.616 32.8087 142.349 33.0605C141.083 33.3124 139.771 33.1831 138.578 32.6891C137.385 32.195 136.366 31.3583 135.648 30.2848C134.931 29.2113 134.548 27.9492 134.548 26.6581C134.548 24.9268 135.236 23.2664 136.46 22.0422C137.684 20.818 139.345 20.1303 141.076 20.1303ZM141.076 15C138.77 14.9983 136.515 15.6806 134.597 16.9605C132.678 18.2405 131.183 20.0606 130.299 22.1907C129.415 24.3208 129.183 26.6652 129.632 28.9272C130.081 31.1892 131.191 33.2673 132.821 34.8986C134.451 36.5299 136.528 37.6411 138.79 38.0916C141.051 38.5421 143.396 38.3118 145.527 37.4296C147.657 36.5475 149.479 35.0533 150.76 33.1359C152.041 31.2186 152.725 28.9642 152.725 26.6581C152.725 23.5677 151.498 20.6037 149.314 18.4177C147.129 16.2316 144.166 15.0023 141.076 15Z" fill="white"/>
<path d="M45.1894 162.753C46.3912 162.753 47.566 163.11 48.5653 163.777C49.5645 164.445 50.3434 165.394 50.8033 166.504C51.2632 167.615 51.3835 168.837 51.1491 170.015C50.9146 171.194 50.3359 172.277 49.4861 173.127C48.6362 173.976 47.5535 174.555 46.3748 174.79C45.1961 175.024 43.9743 174.904 42.864 174.444C41.7537 173.984 40.8047 173.205 40.137 172.206C39.4693 171.206 39.1129 170.032 39.1129 168.83C39.1129 167.218 39.7531 165.673 40.8927 164.533C42.0322 163.394 43.5778 162.753 45.1894 162.753ZM45.1894 157.623C42.9763 157.623 40.813 158.279 38.9729 159.509C37.1328 160.738 35.6986 162.486 34.8517 164.53C34.0048 166.575 33.7833 168.825 34.215 170.995C34.6468 173.166 35.7124 175.16 37.2773 176.725C38.8421 178.289 40.8359 179.355 43.0064 179.787C45.1769 180.219 47.4268 179.997 49.4713 179.15C51.5159 178.303 53.2635 176.869 54.493 175.029C55.7225 173.189 56.3787 171.025 56.3787 168.812C56.3787 165.845 55.1998 162.999 53.1014 160.9C51.003 158.802 48.157 157.623 45.1894 157.623Z" fill="white"/>
<path d="M101.553 86.2942L94.9385 68.7766" stroke="white" stroke-width="5.91"/>
<path d="M119.175 86.1727L137.968 35.5992" stroke="white" stroke-width="5.91"/>
<path d="M109.956 133.89V166.443" stroke="white" stroke-width="5.91"/>
<path d="M96.466 131.642L52.2207 162.892" stroke="white" stroke-width="5.91"/>
<path d="M123.445 130.696L144.383 150.687" stroke="white" stroke-width="5.91"/>
<path d="M109.921 103.543L92.8545 102.041L105.936 113.091C106.587 113.636 107.357 114.019 108.184 114.211C109.011 114.404 109.871 114.399 110.696 114.197C111.52 113.996 112.286 113.603 112.931 113.052C113.576 112.5 114.082 111.804 114.409 111.021C114.736 110.238 114.874 109.389 114.813 108.542C114.751 107.696 114.491 106.875 114.055 106.148C113.618 105.42 113.016 104.805 112.298 104.353C111.58 103.9 110.766 103.623 109.921 103.543Z" fill="white"/>
</g>
<defs>
<clipPath id="clip0_17_2">
<rect width="200" height="200" fill="white"/>
</clipPath>
</defs>
</svg>
