<svg width="200" height="200" viewBox="0 0 200 200" fill="none" xmlns="http://www.w3.org/2000/svg">
<rect x="108.36" y="138.272" width="6.41676" height="38.5419" transform="rotate(0.402919 108.36 138.272)" fill="white"/>
<rect x="94.6812" y="133.728" width="6.41676" height="63.5608" transform="rotate(54.8558 94.6812 133.728)" fill="white"/>
<rect x="123.263" y="135.489" width="6.41676" height="34.3918" transform="rotate(-46.1407 123.263 135.489)" fill="white"/>
<rect x="141.058" y="23" width="6.41676" height="62.4021" transform="rotate(20.3162 141.058 23)" fill="white"/>
<rect x="90.5205" y="63.6495" width="6.41676" height="22.0528" transform="rotate(-20.2057 90.5205 63.6495)" fill="white"/>
<path d="M142.26 97.17C139.673 90.9782 135.308 85.6927 129.717 81.9817C124.126 78.2707 117.56 76.3009 110.849 76.3214C104.139 76.3419 97.5851 78.3518 92.0168 82.0969C86.4486 85.842 82.1159 91.1541 79.5666 97.3616C77.0174 103.569 76.366 110.393 77.695 116.971C79.0239 123.548 82.2734 129.584 87.0326 134.315C91.7918 139.046 97.847 142.259 104.432 143.549C111.018 144.838 117.838 144.146 124.03 141.56C128.142 139.843 131.875 137.332 135.017 134.172C138.158 131.011 140.646 127.263 142.339 123.141C144.032 119.019 144.896 114.604 144.883 110.148C144.869 105.691 143.978 101.282 142.26 97.17ZM130.59 125.8L125.39 122.05L122.78 124.68L126.51 129.85C122.127 133.356 116.689 135.279 111.076 135.306C105.464 135.333 100.006 133.463 95.5899 130L99.3899 124.73L96.7899 122.12L91.4799 125.95C88.5528 122.347 86.7049 117.989 86.1499 113.38L92.7299 112.31V108.64L86.0899 107.56C86.5985 102.933 88.3852 98.5389 91.2499 94.87L96.7799 98.87L99.3599 96.28L95.3599 90.73C98.9953 87.8011 103.39 85.9695 108.03 85.45L109.12 92.18H112.78L113.88 85.45C118.519 85.9755 122.92 87.7831 126.59 90.67L122.59 96.13L125.21 98.71L130.59 94.82C131.989 96.585 133.139 98.5331 134.01 100.61C134.915 102.796 135.508 105.099 135.77 107.45L129.31 108.45V112.15L135.72 113.15C135.217 117.761 133.44 122.141 130.59 125.8Z" fill="white"/>
<path d="M88.8698 40.31C91.0146 40.308 93.1118 40.9424 94.896 42.1327C96.6802 43.3231 98.0711 45.0159 98.8928 46.9971C99.7145 48.9783 99.93 51.1587 99.512 53.2623C99.0941 55.366 98.0615 57.2984 96.5449 58.815C95.0283 60.3316 93.0958 61.3643 90.9922 61.7822C88.8885 62.2002 86.7081 61.9846 84.7269 61.1629C82.7458 60.3413 81.0529 58.9503 79.8626 57.1662C78.6722 55.382 78.0379 53.2848 78.0399 51.14C78.0451 48.2693 79.1878 45.5178 81.2177 43.4879C83.2476 41.458 85.9992 40.3153 88.8698 40.31ZM88.8698 34.39C85.5557 34.3841 82.3143 35.3614 79.5559 37.1983C76.7974 39.0352 74.6458 41.6491 73.3735 44.7092C72.1011 47.7694 71.7651 51.1382 72.4081 54.3893C73.051 57.6405 74.6439 60.6279 76.9852 62.9734C79.3265 65.3189 82.311 66.9172 85.561 67.5659C88.811 68.2147 92.1804 67.8847 95.2428 66.6178C98.3052 65.351 100.923 63.2041 102.765 60.4489C104.607 57.6938 105.59 54.4541 105.59 51.14C105.591 48.94 105.159 46.7613 104.318 44.7285C103.476 42.6957 102.242 40.8487 100.687 39.293C99.1312 37.7374 97.2841 36.5037 95.2513 35.6624C93.2185 34.8211 91.0399 34.3887 88.8398 34.39H88.8698Z" fill="white"/>
<path d="M111.51 178.43C112.858 178.432 114.176 178.834 115.296 179.584C116.416 180.335 117.289 181.401 117.803 182.647C118.318 183.893 118.452 185.264 118.188 186.587C117.923 187.909 117.273 189.123 116.319 190.076C115.365 191.029 114.149 191.677 112.827 191.94C111.504 192.202 110.133 192.066 108.888 191.55C107.642 191.033 106.577 190.159 105.828 189.038C105.08 187.917 104.68 186.598 104.68 185.25C104.682 183.44 105.403 181.706 106.684 180.427C107.964 179.148 109.7 178.43 111.51 178.43ZM111.51 172.51C108.99 172.508 106.525 173.254 104.429 174.652C102.333 176.051 100.698 178.04 99.7324 180.368C98.7666 182.695 98.5129 185.257 99.0034 187.729C99.4938 190.201 100.706 192.472 102.488 194.255C104.269 196.038 106.539 197.252 109.011 197.744C111.482 198.237 114.044 197.985 116.373 197.021C118.701 196.057 120.692 194.424 122.092 192.329C123.492 190.234 124.24 187.77 124.24 185.25C124.24 181.873 122.899 178.634 120.512 176.245C118.125 173.856 114.887 172.513 111.51 172.51Z" fill="white"/>
<path d="M159.37 156C161.407 156 163.399 156.604 165.093 157.737C166.787 158.869 168.108 160.478 168.887 162.361C169.666 164.243 169.87 166.315 169.471 168.313C169.073 170.311 168.091 172.147 166.65 173.587C165.208 175.027 163.372 176.007 161.373 176.403C159.375 176.8 157.303 176.594 155.421 175.813C153.539 175.032 151.931 173.71 150.801 172.015C149.67 170.32 149.068 168.328 149.07 166.29C149.075 163.561 150.162 160.945 152.093 159.016C154.024 157.087 156.641 156.003 159.37 156ZM159.37 150.08C156.165 150.082 153.032 151.034 150.368 152.816C147.704 154.598 145.628 157.13 144.402 160.091C143.176 163.053 142.856 166.311 143.482 169.455C144.108 172.598 145.651 175.486 147.918 177.752C150.184 180.019 153.072 181.562 156.215 182.188C159.359 182.814 162.617 182.494 165.579 181.268C168.54 180.042 171.072 177.966 172.854 175.302C174.636 172.638 175.588 169.505 175.59 166.3C175.59 162.001 173.882 157.878 170.842 154.838C167.802 151.798 163.679 150.09 159.38 150.09L159.37 150.08Z" fill="white"/>
<path d="M147.35 7.91C148.837 7.91 150.291 8.35104 151.528 9.17735C152.765 10.0037 153.729 11.1781 154.298 12.5522C154.867 13.9263 155.016 15.4383 154.726 16.8971C154.435 18.3558 153.719 19.6958 152.668 20.7474C151.616 21.7991 150.276 22.5153 148.817 22.8055C147.358 23.0957 145.846 22.9468 144.472 22.3776C143.098 21.8084 141.924 20.8445 141.098 19.6079C140.271 18.3712 139.83 16.9173 139.83 15.43C139.83 13.4356 140.622 11.5228 142.033 10.1126C143.443 8.70229 145.356 7.91 147.35 7.91ZM147.35 2C144.694 1.99803 142.096 2.784 139.886 4.2585C137.676 5.73301 135.953 7.8298 134.935 10.2836C133.917 12.7375 133.65 15.4381 134.167 18.0439C134.684 20.6498 135.962 23.0437 137.84 24.9229C139.718 26.8021 142.111 28.0822 144.716 28.6012C147.322 29.1202 150.023 28.8548 152.477 27.8387C154.932 26.8225 157.03 25.1011 158.506 22.8924C159.982 20.6836 160.77 18.0866 160.77 15.43C160.77 11.8699 159.357 8.45542 156.84 5.93709C154.324 3.41877 150.91 2.00265 147.35 2Z" fill="white"/>
<path d="M36.89 172.21C38.2745 172.21 39.6279 172.621 40.779 173.39C41.9301 174.159 42.8273 175.252 43.3572 176.531C43.887 177.81 44.0256 179.218 43.7555 180.576C43.4854 181.934 42.8187 183.181 41.8397 184.16C40.8608 185.139 39.6135 185.805 38.2556 186.076C36.8978 186.346 35.4903 186.207 34.2112 185.677C32.9321 185.147 31.8389 184.25 31.0697 183.099C30.3005 181.948 29.89 180.594 29.89 179.21C29.89 177.353 30.6275 175.573 31.9403 174.26C33.253 172.947 35.0335 172.21 36.89 172.21ZM36.89 166.3C34.3406 166.3 31.8485 167.056 29.7287 168.472C27.609 169.889 25.9568 171.902 24.9812 174.257C24.0056 176.613 23.7503 179.204 24.2477 181.705C24.745 184.205 25.9727 186.502 27.7754 188.305C29.5781 190.107 31.8749 191.335 34.3753 191.832C36.8757 192.33 39.4675 192.074 41.8228 191.099C44.1781 190.123 46.1913 188.471 47.6076 186.351C49.024 184.232 49.78 181.739 49.78 179.19C49.78 175.771 48.422 172.493 46.0046 170.075C43.5873 167.658 40.3086 166.3 36.89 166.3Z" fill="white"/>
<path d="M111.46 104L91.7998 102.27L106.87 115C107.62 115.627 108.507 116.069 109.459 116.29C110.412 116.512 111.403 116.506 112.353 116.274C113.303 116.042 114.185 115.59 114.928 114.954C115.671 114.319 116.254 113.518 116.63 112.615C117.007 111.713 117.166 110.735 117.095 109.759C117.024 108.784 116.725 107.839 116.222 107.001C115.719 106.163 115.026 105.454 114.199 104.933C113.371 104.412 112.433 104.092 111.46 104Z" fill="white"/>
</svg>
